<svg width="20" height="20" xmlns="http://www.w3.org/2000/svg"><path d="M10 .4A9.6 9.6 0 00.4 10a9.6 9.6 0 009.6 9.6 9.6 9.6 0 009.6-9.6A9.6 9.6 0 0010 .4zm3.905 7.864c.004.082.005.164.005.244 0 2.5-1.901 5.381-5.379 5.381a5.335 5.335 0 01-2.898-.85c.147.018.298.025.451.025.886 0 1.701-.301 2.348-.809a1.895 1.895 0 01-1.766-1.312 1.9 1.9 0 00.853-.033 1.892 1.892 0 01-1.517-1.854v-.023c.255.141.547.227.857.237a1.89 1.89 0 01-.585-2.526 5.376 5.376 0 003.897 1.977 1.891 1.891 0 013.222-1.725 3.797 3.797 0 001.2-.459 1.9 1.9 0 01-.831 1.047 3.799 3.799 0 001.086-.299 3.834 3.834 0 01-.943.979z" fill="#2D2B31"/></svg>